<svg xmlns="http://www.w3.org/2000/svg"
 width="499.000000pt" height="288.000000pt" viewBox="0 0 499.000000 288.000000"
 preserveAspectRatio="xMidYMid meet" fill="#0083fc"
 >

<g transform="translate(0.000000,288.000000) scale(0.100000,-0.100000)"
fill="inherit" stroke="none">
<path d="M2493 2653 c-8 -3 -13 -24 -13 -59 l0 -54 -337 -2 -338 -3 -3 -519
c-1 -375 1 -523 9 -532 9 -11 65 -14 275 -14 145 0 264 -3 264 -7 0 -5 -21
-74 -46 -155 -26 -80 -44 -153 -41 -162 12 -32 37 -3 62 75 l27 79 153 0 153
0 27 -80 c28 -85 38 -98 60 -80 11 9 5 36 -36 158 -27 80 -49 152 -49 159 0
10 55 13 263 13 191 0 266 3 275 12 9 9 12 138 12 519 0 279 -3 514 -6 523 -5
14 -45 16 -340 16 l-334 0 0 54 c0 53 -10 68 -37 59z m128 -1240 c9 -28 15
-54 11 -57 -7 -8 -247 -8 -255 0 -5 5 3 33 28 102 3 9 30 12 101 10 l97 -3 18
-52z"/>
<path d="M2349 890 c-172 -30 -269 -197 -239 -410 25 -177 134 -273 307 -273
72 0 91 4 140 29 107 55 163 164 163 315 0 160 -64 275 -181 322 -45 19 -133
27 -190 17z m167 -76 c44 -19 99 -86 115 -142 8 -26 14 -85 13 -132 -1 -174
-85 -272 -230 -272 -158 0 -243 114 -232 312 8 141 71 228 179 249 50 10 109
4 155 -15z"/>
<path d="M200 871 c-8 -16 9 -43 115 -174 l124 -156 3 -163 3 -163 30 0 30 0
3 159 3 159 125 159 c125 158 141 190 97 196 -17 2 -44 -26 -134 -142 -63 -80
-117 -145 -120 -146 -3 0 -57 65 -120 145 -114 145 -138 164 -159 126z"/>
<path d="M865 878 c-3 -7 -4 -159 -3 -338 l3 -325 30 0 30 0 3 158 c1 86 6
157 10 157 4 0 90 -72 191 -161 186 -162 222 -183 229 -134 2 15 -40 57 -168
168 -93 81 -170 151 -170 155 0 4 72 70 161 146 122 107 159 145 157 160 -7
48 -41 28 -218 -128 -96 -86 -178 -156 -182 -156 -4 0 -9 69 -10 153 l-3 152
-28 3 c-16 2 -29 -2 -32 -10z"/>
<path d="M1482 878 c-9 -9 -12 -96 -12 -329 0 -267 2 -318 15 -329 10 -9 61
-11 187 -8 162 3 176 5 218 28 76 42 110 142 76 223 -14 36 -69 87 -92 87 -20
0 -17 18 4 24 10 4 32 20 48 37 27 28 29 36 29 104 0 71 -1 75 -35 110 -51 52
-105 65 -280 65 -100 0 -150 -4 -158 -12z m338 -64 c65 -26 89 -98 55 -164
-26 -51 -65 -63 -205 -64 l-125 -1 -3 109 c-1 61 0 116 2 123 8 20 223 18 276
-3z m24 -309 c73 -35 88 -142 27 -197 -37 -33 -82 -40 -221 -36 l-105 3 -3
114 c-1 63 0 121 3 129 8 23 247 12 299 -13z"/>
<path d="M3086 868 c-34 -54 -287 -631 -282 -645 4 -9 16 -13 33 -11 23 3 32
15 64 88 l38 85 187 0 187 0 36 -85 c31 -72 41 -85 63 -88 16 -2 28 3 31 13 6
14 -260 622 -285 653 -17 20 -56 14 -72 -10z m120 -244 c41 -92 74 -169 74
-171 0 -1 -70 -3 -156 -3 -86 0 -154 4 -152 9 26 67 152 340 156 337 2 -3 38
-80 78 -172z"/>
<path d="M3582 882 c-9 -7 -12 -81 -10 -338 l3 -329 30 0 30 0 3 143 3 142 80
0 c123 0 133 -7 230 -159 74 -117 86 -132 109 -129 14 2 26 10 28 20 4 21
-119 215 -160 250 l-31 27 41 11 c84 22 132 87 132 180 0 96 -49 158 -140 179
-53 12 -329 14 -348 3z m329 -62 c19 -6 46 -22 60 -36 20 -22 24 -36 24 -89 0
-111 -43 -135 -237 -135 l-118 0 0 135 0 135 118 0 c64 0 133 -5 153 -10z"/>
<path d="M4253 884 c-10 -4 -13 -81 -13 -335 l0 -329 26 -6 c14 -4 87 -4 162
-1 171 6 217 21 289 92 62 63 86 130 86 245 0 115 -24 182 -86 245 -74 74
-117 87 -302 91 -82 2 -156 1 -162 -2z m337 -81 c89 -39 140 -132 140 -253 0
-121 -51 -214 -140 -253 -34 -16 -73 -22 -162 -25 l-118 -4 0 282 0 282 118
-4 c89 -3 128 -9 162 -25z"/>
</g>
</svg>
